<?xml version="1.0" standalone="no"?>
<!DOCTYPE svg PUBLIC "-//W3C//DTD SVG 20010904//EN"
 "http://www.w3.org/TR/2001/REC-SVG-20010904/DTD/svg10.dtd">
<svg version="1.0" xmlns="http://www.w3.org/2000/svg"
 width="700.000000pt" height="700.000000pt" viewBox="0 0 700.000000 700.000000"
 preserveAspectRatio="xMidYMid meet">
<metadata>
Created by potrace 1.14, written by Peter Selinger 2001-2017
</metadata>
<g transform="translate(0.000000,700.000000) scale(0.100000,-0.100000)"
fill="#000000" stroke="none">
<path d="M572 6989 c-29 -5 -86 -22 -126 -37 -228 -89 -400 -301 -436 -538 -7
-47 -10 -973 -8 -2954 3 -2735 4 -2888 21 -2944 73 -243 259 -427 498 -493 60
-17 224 -18 2979 -18 2755 0 2919 1 2979 18 242 67 431 256 498 498 17 60 18
224 18 2979 0 2755 -1 2919 -18 2979 -66 239 -250 425 -493 498 -56 17 -208
18 -2959 19 -1646 1 -2923 -2 -2953 -7z m2934 -2543 l1589 -605 3 -438 2 -438
-1592 -606 -1593 -606 -3 416 c-1 285 1 417 8 421 6 4 505 186 1108 405 603
219 1100 401 1104 404 3 3 -495 188 -1108 411 l-1114 404 0 418 c0 230 1 418
3 418 2 0 719 -272 1593 -604z"/>
</g>
</svg>
